<svg xmlns="http://www.w3.org/2000/svg" viewBox="0 0 1080 1920">
  <rect width="1080" height="1920" fill="#111118"/><path d="M0 0h1080v420H0z" fill="#561330"/><text x="90" y="190" fill="#ffb6d1" font-family="Arial,sans-serif" font-size="42" letter-spacing="8">ESPORT LOCAL</text><text x="90" y="330" fill="#fff" font-family="Arial,sans-serif" font-size="112" font-weight="700">AVUI</text><circle cx="540" cy="780" r="230" fill="#f2f2f2"/><path d="m540 550 75 54-29 88h-92l-29-88zM310 760l110-20 54 77-55 86-105-40M770 760l-110-20-54 77 55 86 105-40M430 1000l18-110h92l52 95-80 82" fill="#24242d"/><rect x="90" y="1180" width="900" height="310" rx="30" fill="#20121c" stroke="#d3457d" stroke-width="5"/><text x="140" y="1300" fill="#fff" font-family="Arial,sans-serif" font-size="55" font-weight="700">Agenda esportiva</text><text x="140" y="1390" fill="#ffb6d1" font-family="Arial,sans-serif" font-size="39">Partits · activitats · resultats</text><text x="90" y="1720" fill="#d3457d" font-family="Arial,sans-serif" font-size="38">Informació de proximitat</text>
</svg>
